<?xml version="1.0" encoding="UTF-8" standalone="no"?>
<svg width="30px" height="30px" viewBox="0 0 30 30" version="1.1" xmlns="http://www.w3.org/2000/svg" xmlns:xlink="http://www.w3.org/1999/xlink">
    <!-- Generator: Sketch 3.8.1 (29687) - http://www.bohemiancoding.com/sketch -->
    <title>Facebook Circle</title>
    <desc>Created with Sketch.</desc>
    <defs></defs>
    <g id="Home-Page" stroke="none" stroke-width="1" fill="none" fill-rule="evenodd">
        <g id="Mobile-Portrait-|-Article-Page" transform="translate(-275.000000, 0.000000)" fill="#43619C">
            <path d="M296.865553,20.9389213 C296.865553,21.3642295 296.520822,21.708961 296.095514,21.708961 L292.539877,21.708961 L292.539877,16.3057607 L294.353613,16.3057607 L294.625369,14.1997441 L292.539877,14.1997441 L292.539877,12.8554054 C292.539877,12.245759 292.709392,11.8303328 293.583573,11.8303328 L294.698724,11.8295727 L294.698724,9.9462822 C294.506024,9.92043684 293.843927,9.86342502 293.073887,9.86342502 C291.466154,9.86342502 290.365446,10.8447885 290.365446,12.6467421 L290.365446,14.1997441 L288.547149,14.1997441 L288.547149,16.3057607 L290.365446,16.3057607 L290.365446,21.708961 L283.68252,21.708961 C283.257212,21.708961 282.912481,21.3642295 282.912481,20.9389213 L282.912481,8.52592771 C282.912481,8.10061953 283.257212,7.75588805 283.68252,7.75588805 L296.095514,7.75588805 C296.520822,7.75588805 296.865553,8.10061953 296.865553,8.52592771 L296.865553,20.9389213 M290.00019,30 C281.728915,30 275,23.2710849 275,15.00019 C275,6.72891513 281.728915,0 290.00019,0 C298.271465,0 305.00038,6.72891513 305.00038,15.00019 C305.00038,23.2710849 298.271465,30 290.00019,30 L290.00019,30 Z M290.00019,1.14023641 C282.357565,1.14023641 276.140236,7.35756547 276.140236,15.00019 C276.140236,22.6424345 282.357565,28.8597636 290.00019,28.8597636 C297.642435,28.8597636 303.860144,22.6424345 303.860144,15.00019 C303.860144,7.35756547 297.642435,1.14023641 290.00019,1.14023641 L290.00019,1.14023641 Z" id="Facebook-Circle"></path>
        </g>
    </g>
</svg>