<?xml version="1.0" encoding="UTF-8" standalone="no"?>
<svg width="30px" height="30px" viewBox="0 0 30 30" version="1.1" xmlns="http://www.w3.org/2000/svg" xmlns:xlink="http://www.w3.org/1999/xlink">
    <!-- Generator: Sketch 3.8.1 (29687) - http://www.bohemiancoding.com/sketch -->
    <title>Twitter Circle</title>
    <desc>Created with Sketch.</desc>
    <defs></defs>
    <g id="Home-Page" stroke="none" stroke-width="1" fill="none" fill-rule="evenodd">
        <g id="Mobile-Portrait-|-Article-Page" transform="translate(-235.000000, 0.000000)" fill="#24A9E6">
            <path d="M256.550468,9.20778908 C255.985671,9.55062016 255.361582,9.79995186 254.694543,9.93335952 C254.163193,9.35183895 253.403796,8.98848361 252.563061,8.98848361 C250.951527,8.98848361 249.643676,10.3294016 249.643676,11.9831245 C249.643676,12.2176331 249.668761,12.4456804 249.718932,12.6649859 C247.291748,12.5399399 245.140122,11.3491531 243.698864,9.53503693 C243.447251,9.97896897 243.303582,10.4939758 243.303582,11.0420494 C243.303582,12.0808048 243.818968,12.9975548 244.603071,13.5346062 C244.124932,13.5201632 243.673778,13.384095 243.279257,13.1609887 L243.279257,13.1978564 C243.279257,14.6493773 244.286085,15.8603084 245.623203,16.1343452 C245.378432,16.2046598 245.119978,16.239627 244.853543,16.239627 C244.665404,16.239627 244.481826,16.2217633 244.303949,16.1867961 C244.675666,17.3760626 245.75357,18.2422622 247.031775,18.265067 C246.032547,19.0689336 244.772586,19.5478329 243.404683,19.5478329 C243.169034,19.5478329 242.936045,19.5341501 242.707998,19.5067844 C244.000266,20.3551203 245.536164,20.8511231 247.184946,20.8511231 C252.55736,20.8511231 255.494229,16.2886572 255.494229,12.3308966 C255.494229,12.2005296 255.491949,12.0705426 255.487008,11.9428361 C256.057506,11.5201885 256.553129,10.9933993 256.94309,10.3928748 C256.420101,10.6308041 255.856824,10.7919575 255.266182,10.8641725 C255.869367,10.4939758 256.332303,9.906754 256.550468,9.20778908 M250.00019,30 C241.729295,30 235,23.2710849 235,15.00019 C235,6.72891513 241.729295,0 250.00019,0 C258.271465,0 265.00038,6.72891513 265.00038,15.00019 C265.00038,23.2710849 258.271465,30 250.00019,30 L250.00019,30 Z M250.00019,1.14023641 C242.357946,1.14023641 236.140236,7.35756547 236.140236,15.00019 C236.140236,22.6424345 242.357946,28.8597636 250.00019,28.8597636 C257.642815,28.8597636 263.860144,22.6424345 263.860144,15.00019 C263.860144,7.35756547 257.642815,1.14023641 250.00019,1.14023641 L250.00019,1.14023641 Z" id="Twitter-Circle"></path>
        </g>
    </g>
</svg>